<svg width="18" height="18" xmlns="http://www.w3.org/2000/svg"><g stroke="none" fill="none" stroke-miterlimit="10" stroke-width="0"><path fill="#69B565" d="M12.866 15.609c2.705-2.622 2.49-7-.29-9.544C8.745 2.555 5.358 4.477 1.549.598a.31.31 0 0 0-.53.169C.222 6.252-.164 11.56 3.812 15.537a6.453 6.453 0 0 0 9.053.072z"/><path fill="#009455" d="M4.736 8.663c-.073-.145.119-.275.228-.156.785.855 1.615 1.63 2.52 2.288a14.267 14.267 0 0 0 3.691 1.947 17.74 17.74 0 0 0 4.104.906 23.68 23.68 0 0 0 1.858.122c.392.011.433.58.046.644-.64.105-1.29.163-1.944.175a12.679 12.679 0 0 1-4.467-.72 11.112 11.112 0 0 1-3.888-2.352 10.329 10.329 0 0 1-2.148-2.854z"/></g></svg>