<svg xmlns="http://www.w3.org/2000/svg" width="470" height="150" xml:space="preserve"><g><path style="stroke:none;stroke-width:1;stroke-dasharray:none;stroke-linecap:butt;stroke-dashoffset:0;stroke-linejoin:miter;stroke-miterlimit:4;fill:#245028;fill-rule:nonzero;opacity:1" vector-effect="non-scaling-stroke" transform="matrix(1.16 0 0 1.16 -7.136 16.288)" d="M49.352 26.527a6.525 6.525 0 0 1-6.518-6.518 6.526 6.526 0 0 1 6.518-6.519 6.526 6.526 0 0 1 6.519 6.519 6.526 6.526 0 0 1-6.519 6.518z"/><path style="stroke:none;stroke-width:1;stroke-dasharray:none;stroke-linecap:butt;stroke-dashoffset:0;stroke-linejoin:miter;stroke-miterlimit:4;fill:#245028;fill-rule:nonzero;opacity:1" vector-effect="non-scaling-stroke" transform="matrix(1.16 0 0 1.16 48.95 23.889)" d="M0 5.644V0h2v5.644z"/><path style="stroke:none;stroke-width:1;stroke-dasharray:none;stroke-linecap:butt;stroke-dashoffset:0;stroke-linejoin:miter;stroke-miterlimit:4;fill:#245028;fill-rule:nonzero;opacity:1" vector-effect="non-scaling-stroke" transform="matrix(1.16 0 0 1.16 48.95 48.749)" d="M0 5.644V0h2v5.644z"/><path style="stroke:none;stroke-width:1;stroke-dasharray:none;stroke-linecap:butt;stroke-dashoffset:0;stroke-linejoin:miter;stroke-miterlimit:4;fill:#245028;fill-rule:nonzero;opacity:1" vector-effect="non-scaling-stroke" transform="matrix(1.16 0 0 1.16 59.279 38.43)" d="M0 2V0h5.644v2z"/><path style="stroke:none;stroke-width:1;stroke-dasharray:none;stroke-linecap:butt;stroke-dashoffset:0;stroke-linejoin:miter;stroke-miterlimit:4;fill:#245028;fill-rule:nonzero;opacity:1" vector-effect="non-scaling-stroke" transform="matrix(1.16 0 0 1.16 34.419 38.43)" d="M0 2V0h5.645v2z"/><path style="stroke:none;stroke-width:1;stroke-dasharray:none;stroke-linecap:butt;stroke-dashoffset:0;stroke-linejoin:miter;stroke-miterlimit:4;fill:#245028;fill-rule:nonzero;opacity:1" vector-effect="non-scaling-stroke" transform="matrix(1.16 0 0 1.16 55.629 47.23)" d="M0 2V0h5.644v2z"/><path style="stroke:none;stroke-width:1;stroke-dasharray:none;stroke-linecap:butt;stroke-dashoffset:0;stroke-linejoin:miter;stroke-miterlimit:4;fill:#245028;fill-rule:nonzero;opacity:1" vector-effect="non-scaling-stroke" transform="matrix(1.16 0 0 1.16 38.049 29.64)" d="M0 2V0h5.645v2z"/><path style="stroke:none;stroke-width:1;stroke-dasharray:none;stroke-linecap:butt;stroke-dashoffset:0;stroke-linejoin:miter;stroke-miterlimit:4;fill:#245028;fill-rule:nonzero;opacity:1" vector-effect="non-scaling-stroke" transform="matrix(1.16 0 0 1.16 40.16 45.099)" d="M0 5.644V0h2v5.644z"/><path style="stroke:none;stroke-width:1;stroke-dasharray:none;stroke-linecap:butt;stroke-dashoffset:0;stroke-linejoin:miter;stroke-miterlimit:4;fill:#245028;fill-rule:nonzero;opacity:1" vector-effect="non-scaling-stroke" transform="matrix(1.16 0 0 1.16 57.74 27.529)" d="M0 5.645V0h2v5.645z"/><path style="stroke:none;stroke-width:1;stroke-dasharray:none;stroke-linecap:butt;stroke-dashoffset:0;stroke-linejoin:miter;stroke-miterlimit:4;fill:#245028;fill-rule:nonzero;opacity:1" vector-effect="non-scaling-stroke" transform="matrix(1.16 0 0 1.16 -7.134 16.419)" d="M82.936 65.095c-4.09 22.881-22.82 26.368-22.82 26.368-24.278 6.266-33.873-14.488-33.873-14.488 13.314 19.579 32.698 13.51 32.698 13.51-3.524.393-14.88-12.53-14.88-12.53-12.727-12.727-25.257-7.636-25.257-7.636C28.985 101.645 58.94 93.617 58.94 93.617c21.447-6.97 23.804-25.332 24.052-28.486l-.056-.036z"/><path style="stroke:none;stroke-width:1;stroke-dasharray:none;stroke-linecap:butt;stroke-dashoffset:0;stroke-linejoin:miter;stroke-miterlimit:4;fill:#245028;fill-rule:nonzero;opacity:1" vector-effect="non-scaling-stroke" transform="matrix(1.16 0 0 1.16 -7.154 16.364)" d="M42.102 72.668c-.783-.198 11.454-5.581 11.454-5.581v-.686a61.871 61.871 0 0 0-3.51-1.021v-1.62c8.033 1.702 8.313-8.325 8.313-8.325-4.984.305-7.293 1.879-8.313 3.572v-2.831c6.558-4.077-.959-11.236-.959-11.236-5.792 6.286-2.334 9.799-.521 11.047v2.162c-1.276-1.41-3.69-2.54-8.241-2.422 0 0 1.077 9.319 8.241 7.78v1.511a61.152 61.152 0 0 0-21.016-1.209v-1.344c8.033 1.702 8.313-8.325 8.313-8.325-4.984.306-7.293 1.879-8.313 3.572v-2.831c6.558-4.078-.959-11.236-.959-11.236-5.792 6.286-2.333 9.799-.52 11.048v2.161c-1.276-1.41-3.691-2.54-8.241-2.422 0 0 1.077 9.319 8.241 7.78v1.789c-5.163.744-8.247 1.91-8.247 1.91l.293 1.958c14.978-2.153 23.985 4.799 23.985 4.799z"/><path style="stroke:none;stroke-width:1;stroke-dasharray:none;stroke-linecap:butt;stroke-dashoffset:0;stroke-linejoin:miter;stroke-miterlimit:4;fill:#245028;fill-rule:nonzero;opacity:1" vector-effect="non-scaling-stroke" transform="matrix(1.16 0 0 1.16 -7.097 16.394)" d="M63.146 55.728s1.077 9.319 8.241 7.78v1.185c-13.618 1.677-28.473 9.233-28.473 9.233C59.443 92.491 61.38 90.294 61.38 90.294c17.13-4.181 21.176-25.247 21.176-25.247-2.935-.732-6.254-.825-9.689-.512v-.774c8.033 1.702 8.313-8.325 8.313-8.325-4.983.305-7.293 1.879-8.313 3.572v-2.831c6.558-4.077-.959-11.236-.959-11.236-5.792 6.286-2.334 9.799-.521 11.047v2.162c-1.275-1.411-3.69-2.541-8.241-2.422z"/><path style="stroke:none;stroke-width:1;stroke-dasharray:none;stroke-linecap:butt;stroke-dashoffset:0;stroke-linejoin:miter;stroke-miterlimit:4;fill:#245028;fill-rule:nonzero;opacity:1" vector-effect="non-scaling-stroke" transform="matrix(1.42 0 0 1.42 117.13 9.68)" d="M0 92V0h3v92z"/><g><text xml:space="preserve" font-family="Cormorant Garamond" font-size="30" font-weight="700" letter-spacing=".03" style="stroke:none;stroke-width:1;stroke-dasharray:none;stroke-linecap:butt;stroke-dashoffset:0;stroke-linejoin:miter;stroke-miterlimit:4;fill:#333;fill-rule:nonzero;opacity:1;white-space:pre" transform="matrix(1.42 0 0 1.42 298.8 47.8)"><tspan x="-111.1" y="12.09">М</tspan><tspan x="-82.76" y="12.09">А</tspan><tspan x="-61.06" y="12.09">Р</tspan><tspan x="-42.71" y="12.09">Ь</tspan><tspan x="-24.44" y="12.09">Я</tspan><tspan x="-2.75" y="12.09">В</tspan><tspan x="17.29" y="12.09">И</tspan><tspan x="40.66" y="12.09">Л</tspan><tspan x="63.04" y="12.09">Л</tspan><tspan x="85.43" y="12.09">А</tspan></text></g><g><text xml:space="preserve" font-family="Arsenal" font-size="18" font-weight="700" letter-spacing=".27" style="stroke:none;stroke-width:1;stroke-dasharray:none;stroke-linecap:butt;stroke-dashoffset:0;stroke-linejoin:miter;stroke-miterlimit:4;fill:#245028;fill-rule:nonzero;opacity:1;white-space:pre" transform="matrix(1.42 0 0 1.42 298.8 94.88)"><tspan x="-111.1" y="4.25">Ц</tspan><tspan x="-96.83" y="4.25">В</tspan><tspan x="-84.56" y="4.25">Е</tspan><tspan x="-72.28" y="4.25">Т</tspan><tspan x="-60.24" y="4.25">О</tspan><tspan x="-46.42" y="4.25">Ч</tspan><tspan x="-32.94" y="4.25">Н</tspan><tspan x="-18.67" y="4.25">О</tspan><tspan x="-4.4" y="4.25">Е</tspan><tspan x="7.88" y="4.25" style="white-space:pre"> </tspan><tspan x="12.74" y="4.25">Р</tspan><tspan x="21.7" y="4.25">А</tspan><tspan x="34.52" y="4.25">З</tspan><tspan x="43.19" y="4.25">Д</tspan><tspan x="55.85" y="4.25">О</tspan><tspan x="69.22" y="4.25">Л</tspan><tspan x="82.9" y="4.25">Ь</tspan><tspan x="95.07" y="4.25">Е</tspan></text></g></g></svg>